<svg xmlns="http://www.w3.org/2000/svg" fill="none" stroke="#f2f2f2" stroke-linejoin="round" stroke-width="2" viewBox="0 0 64 72">
  <defs/>
  <path d="M52.48 22.286c5.655 0 10.24-4.605 10.24-10.286S58.135 1.714 52.48 1.714 42.24 6.319 42.24 12s4.585 10.286 10.24 10.286zm-40.96 24c5.655 0 10.24-4.605 10.24-10.286s-4.585-10.286-10.24-10.286S1.28 30.319 1.28 36s4.585 10.286 10.24 10.286zm40.96 24c5.655 0 10.24-4.605 10.24-10.286s-4.585-10.286-10.24-10.286S42.24 54.319 42.24 60s4.585 10.286 10.24 10.286z"/>
  <path stroke-linecap="round" d="M20.361 41.177l23.313 13.646m-.034-37.646L20.361 30.823"/>
</svg>
