<svg width="145" height="45" fill="none" xmlns="http://www.w3.org/2000/svg"><path d="M52.99 29.283a10.039 10.039 0 01-3.639-3.695 10.198 10.198 0 01-1.331-5.041c0-1.77.459-3.508 1.331-5.041a10.038 10.038 0 013.639-3.695 9.705 9.705 0 015.008-1.347c.414 0 .827.028 1.237.085a.524.524 0 01.383.224.539.539 0 01.082.44l-.442 2.42a.502.502 0 01-.355.427.487.487 0 01-.194.015l-.711-.028a6.186 6.186 0 00-3.209.876 6.452 6.452 0 00-2.325 2.354 6.536 6.536 0 000 6.502 6.42 6.42 0 002.325 2.354c.972.58 2.081.883 3.209.876a5.6 5.6 0 003.51-1.154 6.69 6.69 0 002.224-3.07h-3.54a.515.515 0 01-.385-.164.545.545 0 01-.163-.391v-2.024a.569.569 0 01.164-.39.554.554 0 01.385-.166h5.845c.352-.02.702.057 1.014.221a.712.712 0 01.358.64 10.782 10.782 0 01-1.21 5.08 9.31 9.31 0 01-3.361 3.654 8.923 8.923 0 01-4.841 1.347 9.704 9.704 0 01-5.008-1.309zm20.028-2.053a9.968 9.968 0 01-1.99-3.418l-.051-.141a9.835 9.835 0 01-.498-3.108c.003-1.154.198-2.3.577-3.39a9.477 9.477 0 011.73-3.027 12.768 12.768 0 013.06-2.514 8.91 8.91 0 013.91-1.003h.08a9.568 9.568 0 014.5.829 9.832 9.832 0 012.646 1.793 8.277 8.277 0 011.86 2.354 9.893 9.893 0 011.302 4.911 10.22 10.22 0 01-.465 3.042c-.319.99-.79 1.922-1.395 2.764-.433.629-.934 1.209-1.492 1.727-.608.536-1.276.998-1.99 1.375a9.604 9.604 0 01-6.264.97 9.68 9.68 0 01-5.52-3.15v-.014zm11.95-2.476c.44-.488.8-1.043 1.07-1.644a6.58 6.58 0 00.55-2.594 6.395 6.395 0 00-.991-3.432 6.007 6.007 0 00-2.716-2.354 6.382 6.382 0 00-2.604-.556 6.097 6.097 0 00-4.315 1.747l-.466.504a6.576 6.576 0 00-1.11 1.968 6.577 6.577 0 00.204 4.85 5.852 5.852 0 001.674 2.18 6.26 6.26 0 006.906.82 6.889 6.889 0 001.799-1.49zm11.161 4.708a8.462 8.462 0 01-3.115-1.526.579.579 0 01-.163-.419c.019-.244.094-.481.218-.692.223-.39.467-.767.73-1.13a.571.571 0 01.465-.277.886.886 0 01.247.056A11.226 11.226 0 00100.435 27a4.27 4.27 0 002.209-.471c.243-.119.448-.304.592-.534.144-.23.221-.498.222-.77a2.372 2.372 0 00-.577-1.413 2.595 2.595 0 00-1.139-.791 18.745 18.745 0 00-1.958-.654c-.093 0-.33-.085-.716-.194-1.232-.33-2.4-.87-3.455-1.596a4.434 4.434 0 01-1.646-2.354 5.931 5.931 0 01-.302-1.78 4.79 4.79 0 01.739-2.594 5.77 5.77 0 012.14-1.958 8.567 8.567 0 013.291-.975c.168 0 .424-.024.772-.024 1.401.003 2.788.276 4.088.806 1.423.721 2.054 1.332 1.892 1.831-.165.37-.378.717-.632 1.031-.321.42-.525.692-.618.82a.278.278 0 01-.247.113 2.551 2.551 0 01-.93-.335 6.446 6.446 0 00-1.46-.527 10.11 10.11 0 00-2.06-.278 5.577 5.577 0 00-1.781.306 3.219 3.219 0 00-1.098.848c-.24.282-.376.64-.385 1.012a1.663 1.663 0 00.772 1.36 9.265 9.265 0 001.822 1.032c.647.277 1.395.565 2.181.861.878.314 1.586.614 2.125.9a3.8 3.8 0 011.33 1.068c.417.425.734.938.93 1.502.239.6.365 1.238.372 1.884a4.486 4.486 0 01-.823 2.697 5.328 5.328 0 01-2.278 1.761 8.373 8.373 0 01-3.348.627 14.255 14.255 0 01-4.34-.72l.01-.029zm18.791-.301a9.983 9.983 0 01-3.552-3.667 10.134 10.134 0 01-1.298-4.966c0-1.741.447-3.452 1.298-4.966a9.983 9.983 0 013.552-3.667 9.266 9.266 0 014.874-1.346 9.492 9.492 0 013.92.833 9.38 9.38 0 013.255 2.387.526.526 0 01.163.363.548.548 0 01-.191.358c-.386.315-.772.645-1.153.988l-.795.707a.528.528 0 01-.386.17.497.497 0 01-.358-.17 5.981 5.981 0 00-2.011-1.476 5.914 5.914 0 00-2.43-.52 5.759 5.759 0 00-3.06.856 6.333 6.333 0 00-2.237 2.307 6.5 6.5 0 000 6.333 6.3 6.3 0 002.237 2.307 5.764 5.764 0 003.06.862 5.676 5.676 0 002.274-.471 6.201 6.201 0 001.976-1.366.95.95 0 01.605-.22.576.576 0 01.437.169c.186.145.441.362.772.65.33.287.609.54.846.767a.751.751 0 01.302.607.534.534 0 01-.163.39 9.606 9.606 0 01-5.653 3.009 9.546 9.546 0 01-6.27-1.228h-.014zm16.313.97a.377.377 0 01-.111-.278V11.184a.387.387 0 01.111-.277.39.39 0 01.275-.109h2.878a.353.353 0 01.274.123c.069.07.109.165.112.263v7.251a.667.667 0 00.19.448c.118.119.276.188.442.193h5.213a.589.589 0 00.423-.18.728.728 0 00.205-.47v-7.242a.395.395 0 01.112-.263.356.356 0 01.274-.123h2.878a.369.369 0 01.359.236.369.369 0 01.027.15v18.697a.376.376 0 01-.111.278.366.366 0 01-.275.113h-2.887a.346.346 0 01-.275-.127.388.388 0 01-.111-.264v-6.446a.728.728 0 00-.205-.47.565.565 0 00-.423-.18h-5.213a.598.598 0 00-.428.165.69.69 0 00-.204.443v6.488a.394.394 0 01-.112.264.34.34 0 01-.274.127h-2.879a.365.365 0 01-.274-.113l.009-.028zM41.398 22.117v-.581V2.84a.823.823 0 00-.242-.6.805.805 0 00-.6-.23h-6.16a.737.737 0 00-.585.264.846.846 0 00-.236.566v15.482c-.027.37-.184.718-.442.981a1.242 1.242 0 01-.908.385h-6.238c-.309.009-.603.137-.821.358a1.232 1.232 0 00-.355.83v4.33c.01.313.136.61.355.831.218.221.512.35.821.358h7.567a14.368 14.368 0 01-4.754 6.558 12.025 12.025 0 01-7.505 2.46 13.265 13.265 0 01-6.864-1.868 13.781 13.781 0 01-5.016-5.073 13.935 13.935 0 01-1.848-6.939c0-2.437.638-4.831 1.848-6.939a13.78 13.78 0 015.016-5.072 13.264 13.264 0 016.864-1.869l1.54.057c.279.026.557-.06.773-.24.216-.18.354-.439.382-.72l.94-5.166a1.162 1.162 0 00-.182-.933 1.139 1.139 0 00-.814-.474A19.202 19.202 0 0021.294 0c-2.8-.014-5.575.534-8.164 1.612a21.177 21.177 0 00-6.923 4.665 21.45 21.45 0 00-4.613 7.001A21.643 21.643 0 000 21.536a21.62 21.62 0 002.812 10.767 21.314 21.314 0 007.774 7.887 20.731 20.731 0 0010.709 2.902c3.65.052 7.239-.945 10.35-2.876a19.88 19.88 0 007.187-7.788 22.812 22.812 0 002.566-10.103v-.208z" fill="#F2F2F2"/></svg>