<svg xmlns="http://www.w3.org/2000/svg" fill="none" viewBox="0 0 506 518">
  <defs/>
  <g clip-path="url(#clip0)">
    <path fill="#D6D8E5" d="M74.3941 376.638c41.0869 0 74.3939-19.263 74.3939-43.025 0-23.762-33.307-43.025-74.3939-43.025C33.3074 290.588 0 309.851 0 333.613c0 23.762 33.3074 43.025 74.3941 43.025z" opacity=".15"/>
    <path fill="#EDEFF9" d="M73.5357 353.007c22.9167 0 41.4943-10.743 41.4943-23.994 0-13.252-18.5776-23.994-41.4943-23.994-22.9168 0-41.4944 10.742-41.4944 23.994 0 13.251 18.5776 23.994 41.4944 23.994z" opacity=".5"/>
    <path fill="#EDEFF9" d="M73.1427 327.345c6.5346 0 11.8319-3.066 11.8319-6.848s-5.2973-6.848-11.8319-6.848c-6.5346 0-11.8319 3.066-11.8319 6.848s5.2973 6.848 11.8319 6.848z"/>
    <path fill="#EDEFF9" d="M84.9125 229.712H62.1589v89.573h22.7536v-89.573z"/>
    <path fill="#DBA14B" d="M61.0729 228.697s.6205 18.42 13.7039 51.458c0 0 12.1835-26.604 13.4453-52.017 1.2618-25.413-27.1492.559-27.1492.559z"/>
    <path fill="#234A6B" d="M45.0936 159.347l-30.2727 29.505-3.5992 38.529 36.6127-18.389 6.6606-46.993-9.4014-2.652zM104.46 159.347l30.262 29.505 3.61 38.529-36.747-19.663-6.5264-45.719 9.4014-2.652z"/>
    <path fill="#424956" d="M74.3941 233.349c8.3111 0 15.0485-3.897 15.0485-8.703 0-4.806-6.7374-8.702-15.0485-8.702-8.311 0-15.0484 3.896-15.0484 8.702s6.7374 8.703 15.0484 8.703z"/>
    <path fill="#494949" d="M51.5784 215.944v-7.832h45.5798v8.122l-45.5798-.29z"/>
    <path fill="#2B303F" d="M74.3941 229.132c12.6008 0 22.8158-5.909 22.8158-13.199 0-7.289-10.215-13.198-22.8158-13.198-12.6007 0-22.8157 5.909-22.8157 13.198 0 7.29 10.215 13.199 22.8157 13.199z"/>
    <path fill="#EDEFF9" d="M74.3217 220.15c15.3768 0 27.8423-7.208 27.8423-16.099 0-8.892-12.4655-16.1-27.8423-16.1-15.3768 0-27.8422 7.208-27.8422 16.1 0 8.891 12.4654 16.099 27.8422 16.099z"/>
    <path fill="#EDEFF9" d="M104.388 175.374v6.91c0 1.399-.073 2.735-.125 4.041 0 1.626-.113 3.17-.196 4.651-.083 1.482-.155 2.932-.259 4.269-.424 5.853-.413 10.163-1.137 11.851-3.9408 9.231-17.2724 4.144-23.8503.829-2.4305-1.222-4.0336-2.227-4.0336-2.227h-.5999s-1.903 1.036-4.7162 2.155c-6.8985 2.797-19.1958 7.759-22.6088-.788-.6102-1.533-1.2204-6.599-1.5928-11.903-.0931-1.326-.1758-2.746-.2585-4.258-.0828-1.513-.1242-3.015-.1862-4.642 0-1.295-.0724-2.631-.1034-4.019v-6.91c-.1862-36.146 3.6405-93.9448 16.2792-118.612 3.6509-7.138 8.0361-11.4996 13.2798-11.7586h.5999c5.1713.2694 9.6082 4.6102 13.2695 11.7172C100.613 81.2535 104.615 138.824 104.388 175.374z"/>
    <path fill="#2B303F" d="M74.4665 141.29c5.8092 0 10.5184-4.718 10.5184-10.536 0-5.819-4.7092-10.537-10.5184-10.537-5.8091 0-10.5184 4.718-10.5184 10.537 0 5.818 4.7093 10.536 10.5184 10.536z"/>
    <path fill="#424956" d="M74.4665 142.833c-2.3851 0-4.7167-.708-6.6999-2.036-1.9831-1.327-3.5288-3.213-4.4416-5.421-.9127-2.207-1.1515-4.636-.6862-6.979.4653-2.343 1.6138-4.496 3.3004-6.185 1.6865-1.69 3.8353-2.84 6.1746-3.306 2.3393-.466 4.7641-.227 6.9676.687 2.2036.915 4.087 2.463 5.4122 4.449 1.3251 1.987 2.0323 4.322 2.0323 6.712-.0027 3.202-1.2741 6.273-3.5351 8.538-2.261 2.265-5.3268 3.539-8.5243 3.541zm0-21.072c-1.776-.002-3.5127.524-4.9904 1.511-1.4777.986-2.6299 2.39-3.311 4.033-.681 1.643-.8603 3.451-.5151 5.197.3453 1.745 1.1994 3.348 2.4545 4.607 1.2551 1.258 2.8547 2.116 4.5964 2.463 1.7418.348 3.5473.171 5.1883-.51 1.641-.68 3.0437-1.832 4.0306-3.311.9869-1.479 1.5137-3.218 1.5137-4.997-.0027-2.383-.948-4.667-2.6288-6.352-1.6807-1.686-3.9599-2.635-6.3382-2.641z"/>
    <path fill="#2B303F" d="M74.4665 110.313c5.8092 0 10.5184-4.717 10.5184-10.5359S80.2757 89.241 74.4665 89.241c-5.8091 0-10.5184 4.7172-10.5184 10.5361 0 5.8189 4.7093 10.5359 10.5184 10.5359z"/>
    <path fill="#424956" d="M74.4665 111.888c-2.3867.002-4.7205-.705-6.7062-2.031-1.9858-1.326-3.5345-3.213-4.4502-5.42-.9157-2.208-1.1574-4.6384-.6945-6.9838.4628-2.3454 1.6095-4.5006 3.295-6.1933 1.6855-1.6927 3.8342-2.8469 6.1744-3.3165 2.3402-.4697 4.767-.2338 6.9734.6778 2.2064.9115 4.0935 2.4579 5.4227 4.4436 1.3292 1.9857 2.0408 4.3216 2.0449 6.7124.0027 3.2078-1.266 6.2848-3.5272 8.5558-2.2613 2.271-5.3302 3.55-8.5323 3.555zm0-21.0722c-1.7764-.0021-3.5135.5238-4.9914 1.5112-1.4779.9873-2.6302 2.3916-3.3109 4.0352-.6808 1.6436-.8594 3.4525-.5134 5.1978.3461 1.745 1.2013 3.349 2.4574 4.607 1.2562 1.258 2.8567 2.115 4.5991 2.461 1.7424.347 3.5483.168 5.1891-.514 1.6409-.682 3.0428-1.836 4.0285-3.316.9856-1.481 1.5107-3.221 1.5086-5.0001.0014-1.1809-.2295-2.3505-.6794-3.4421-.4499-1.0915-1.11-2.0836-1.9427-2.9196-.8326-.836-1.8215-1.4995-2.9102-1.9527-1.0886-.4532-2.2558-.6871-3.4347-.6885v.0208z"/>
    <path fill="#234A6B" d="M104.388 196.208v3.813c-1.035 3.418-3.848 6.692-8.4193 9.324-11.8526 6.848-31.0277 6.848-42.932 0-4.5714-2.653-7.3742-5.937-8.4188-9.324v-3.803c1.0342 3.481 3.8267 6.797 8.4602 9.48 11.8629 6.848 31.0794 6.848 42.932 0 4.5399-2.714 7.4159-6.019 8.3779-9.49z"/>
    <path fill="#234A6B" d="M104.295 202.238c0 1.388-.073 2.735-.125 4.03-1.158 3.232-3.909 6.309-8.2737 8.816-11.8525 6.858-31.0277 6.858-42.932 0-4.3542-2.528-7.1053-5.626-8.274-8.879 0-1.295-.0724-2.631-.1034-4.009 1.0342 3.377 3.8577 6.589 8.3671 9.2 11.8629 6.858 31.0794 6.858 42.932 0 4.53-2.601 7.323-5.802 8.409-9.158z"/>
    <path fill="#234A6B" d="M103.974 191.536c-1.252 3.035-3.941 5.926-8.0467 8.288-11.8525 6.848-31.0277 6.848-42.932 0-4.137-2.404-6.8261-5.305-8.0775-8.371.0827 1.512.1655 2.932.2585 4.258 1.3342 2.859 3.9406 5.553 7.819 7.801 5.0588 2.761 10.6402 4.427 16.3827 4.89 3.0944.301 6.2095.325 9.3083.072 6.0252-.381 11.8949-2.075 17.1997-4.962 3.8474-2.228 6.443-4.89 7.788-7.718l.3-4.258zM87.9636 56.7003c-8.8461 2.7198-18.3032 2.7198-27.1493 0 3.651-7.1381 8.0362-11.4996 13.2799-11.7586h.5999c5.223.3108 9.6082 4.6516 13.2695 11.7586z"/>
    <path fill="#234A6B" d="M77.3521 159.43h-5.1609v67.868h5.1609V159.43z"/>
    <path fill="#D6D8E5" d="M322.068 395.938l-59.987-34.695c-4.334-2.507-3.786-6.879 1.21-9.77l38.867-22.47 75.656 43.75-38.867 22.481c-5.006 2.89-12.556 3.201-16.879.704z" opacity=".4"/>
    <path fill="#BDBEC0" d="M326.443 393.359l-59.987-34.706c-4.324-2.497-3.786-6.869 1.21-9.759l38.877-22.471 75.656 43.75-38.826 22.471c-5.047 2.901-12.607 3.212-16.93.715z"/>
    <path fill="#BDBEC0" d="M382.189 370.173v-2.289l-3.496 2.02 3.496.269zM263.529 354.519v-2.331l3.589 1.492-3.589.839z"/>
    <path fill="#D6D8E5" d="M326.443 391.059l-59.987-34.696c-4.324-2.507-3.786-6.868 1.21-9.759l38.877-22.481 75.656 43.761-38.826 22.47c-5.047 2.891-12.607 3.212-16.93.705z"/>
    <path fill="#9EA1AF" d="M306.73 324.227l-9.36-31.122 76.483 43.947 8.336 30.832-75.459-43.657z"/>
    <path fill="#9EA1AF" d="M379.976 369.158l2.213-1.274-3.299-2.642 1.086 3.916z"/>
    <path fill="#BDBEC0" d="M304.32 325.397l-9.36-31.121 76.483 43.947 8.522 30.935-75.645-43.761z"/>
    <path fill="#C4C7D6" d="M498.512 421.652L202.414 250.391c-4.137-2.404-7.519-8.848-7.519-14.39V6.59932c0-5.55296 3.372-8.10152 7.519-5.698002L498.512 172.121c4.137 2.404 7.519 8.847 7.519 14.39v229.401c-.031 5.543-3.382 8.092-7.519 5.74z"/>
    <path fill="#C4C7D6" d="M500.001 423.973l3.279-1.896-1.417-9.739-1.862 11.635z"/>
    <path fill="#BDBEC0" d="M194.368 2.32064l3.227-1.87516 4.644 2.66252s-4.944.75628-5.068.7252c-.124-.03108-2.803-1.51256-2.803-1.51256z"/>
    <path fill="#E4E7F2" d="M495.761 423.175l-296.056-171.22c-4.137-2.403-7.519-8.837-7.519-14.39V8.16369c0-5.5426 3.361-8.0911651 7.519-5.68764L495.761 173.696c4.137 2.403 7.519 8.847 7.519 14.39v229.422c0 5.522-3.361 8.07-7.519 5.667z"/>
    <path fill="#D6D8E5" d="M495.244 423.475L199.177 252.256c-4.137-2.404-7.519-8.848-7.519-14.39V8.46412c0-5.5426 3.372-8.091165 7.519-5.68764L495.244 174.048c4.137 2.393 7.519 8.837 7.519 14.39v229.339c0 5.553-3.372 8.102-7.519 5.698z"/>
    <path fill="#fff" d="M498.688 409.52L195.475 234.136l.103-224.74985c0-2.29992 1.613-3.23232 3.599-2.072L495.244 178.524c1.043.681 1.913 1.599 2.538 2.679.625 1.079.988 2.291 1.061 3.537l-.155 224.78z"/>
    <path fill="#F2F2F2" d="M315.159 105.755l-97.138-56.172c-.448-.3238-.814-.7482-1.069-1.2394-.255-.4911-.392-1.0353-.399-1.5889v-6.7858c0-1.036.651-1.5851 1.468-1.1189l97.138 56.1719c.446.3254.811.7503 1.066 1.2411.255.4907.393 1.0341.402 1.5872v6.7858c0 1.088-.661 1.595-1.468 1.119zM290.213 107.381l-71.747-41.4914c-.45-.3204-.818-.7425-1.075-1.232-.257-.4896-.395-1.0329-.404-1.5859v-3.3774c0-1.036.662-1.5954 1.479-1.1189l71.747 41.4916c.443.325.805.748 1.057 1.237.251.49.385 1.031.391 1.581v3.378c0 1.087-.642 1.595-1.448 1.118zM290.213 120.176l-71.747-41.44c-.45-.3204-.818-.7425-1.075-1.232-.257-.4896-.395-1.0329-.404-1.5859V72.52c0-1.036.662-1.5954 1.479-1.1189l71.747 41.5229c.447.322.813.745 1.068 1.234.255.49.392 1.032.4 1.584v3.377c-.02 1.057-.662 1.544-1.468 1.057z"/>
    <path fill="#234A6B" d="M276.674 125.17l-58.208-33.6705c-.45-.3204-.818-.7424-1.075-1.232-.257-.4896-.395-1.0329-.404-1.5859v-3.3774c0-1.036.662-1.5954 1.479-1.1188l58.208 33.6596c.45.323.818.747 1.075 1.238s.395 1.036.404 1.59v3.378c0 1.087-.662 1.585-1.479 1.119z"/>
    <path fill="#F2F2F2" d="M315.159 240.186l-97.138-56.172c-.448-.323-.814-.748-1.069-1.239-.255-.491-.392-1.035-.399-1.589V174.4c0-1.088.651-1.585 1.468-1.119l97.138 56.172c.446.326.811.751 1.066 1.241.255.491.393 1.034.402 1.588v6.785c0 1.088-.661 1.585-1.468 1.119zM290.213 241.813l-71.747-41.44c-.45-.323-.817-.748-1.074-1.239-.257-.491-.396-1.035-.405-1.59v-3.377c0-1.088.662-1.585 1.479-1.108l71.747 41.44c.446.325.811.75 1.066 1.241.255.49.393 1.034.402 1.587v3.377c-.02 1.078-.662 1.575-1.468 1.109zM290.213 254.618l-71.747-41.492c-.449-.322-.816-.744-1.073-1.233-.257-.49-.396-1.032-.406-1.585v-3.377c0-1.036.662-1.585 1.479-1.109l71.747 41.44c.446.326.811.75 1.066 1.241.255.491.393 1.034.402 1.587v3.378c-.02 1.119-.662 1.616-1.468 1.15z"/>
    <path fill="#234A6B" d="M276.674 259.591l-58.208-33.66c-.45-.323-.819-.747-1.075-1.238-.257-.491-.395-1.036-.404-1.59v-3.378c0-1.088.662-1.585 1.479-1.108l58.208 33.659c.45.324.818.748 1.075 1.239.257.491.395 1.035.404 1.59v3.377c0 1.088-.662 1.554-1.479 1.109z"/>
    <path fill="#F5F6FF" d="M341.15 256.866s10.715 9.013 26.187-3.295c11.046-9.075 20.923-3.895 26.425-.787 5.503 3.108 13.446 5.014 28.577 32.385 0 0 4.923 8.578 13.052 13.282 8.129 4.703 12.039 2.403 18.431-7.252 6.391-9.656 10.58-20.347 22.329-13.365v97.063l-136.056-78.601v-40.062l1.055.632z"/>
    <path fill="#F2F2F2" d="M311.58 215.716l-93.083-53.872c-.45-.323-.817-.747-1.074-1.238-.257-.492-.396-1.036-.405-1.59v-53.8c0-1.036.662-1.585 1.479-1.119l93.083 53.872c.45.323.818.748 1.075 1.239.257.491.395 1.035.404 1.59v53.82c0 1.067-.662 1.564-1.479 1.098z"/>
    <path stroke="#F2F2F2" stroke-miterlimit="10" stroke-width=".31" d="M340.095 254.607v41.668l136.056 78.674v-97.063M393.566 253.271v73.825M435.195 299.963v51.2"/>
    <path stroke="#F2F2F2" stroke-miterlimit="10" stroke-width="1.53" d="M340.095 256.234c24.139 14.991 27.552-18.897 53.854-3.688 26.301 15.208 22.67 35.027 42.083 46.257 19.413 11.23 19.869-32.634 40.119-20.917"/>
    <path fill="#234A6B" d="M395.83 257.222c1.251-.723 1.249-3.074-.005-5.249-1.253-2.175-3.284-3.352-4.536-2.628-1.251.724-1.25 3.074.004 5.249s3.285 3.352 4.537 2.628zM480.32 282.962c1.257-.724 1.26-3.082.006-5.267-1.253-2.186-3.289-3.37-4.546-2.647-1.258.724-1.26 3.083-.007 5.268 1.254 2.185 3.29 3.37 4.547 2.646zM439.191 304.215c1.257-.724 1.26-3.082.006-5.268-1.254-2.185-3.289-3.37-4.547-2.646-1.257.724-1.26 3.082-.006 5.267 1.254 2.186 3.289 3.37 4.547 2.647zM342.365 260.182c1.252-.724 1.25-3.074-.004-5.249-1.254-2.176-3.285-3.352-4.536-2.628-1.252.723-1.25 3.074.004 5.249s3.285 3.352 4.536 2.628z"/>
    <path fill="#F2F2F2" d="M343.932 184.646l-5.575-3.222c-.449-.323-.817-.747-1.074-1.238-.257-.491-.396-1.036-.405-1.59V151.66c0-1.088.662-1.585 1.479-1.119l5.575 3.232c.449.312.819.725 1.081 1.205.262.48.409 1.015.429 1.562v26.987c0 1.088-.693 1.585-1.51 1.119z"/>
    <path fill="#234A6B" d="M356.819 192.074l-5.575-3.232c-.45-.32-.819-.742-1.075-1.232-.257-.49-.396-1.033-.404-1.586v-54.908c0-1.036.662-1.595 1.479-1.119l5.575 3.233c.449.323.817.747 1.074 1.238.257.491.395 1.036.405 1.59v54.908c-.042 1.077-.704 1.575-1.479 1.108z"/>
    <path fill="#F2F2F2" d="M382.458 206.92l-5.575-3.222c-.451-.321-.82-.745-1.078-1.236-.257-.492-.394-1.037-.401-1.592v-49.562c0-1.088.662-1.585 1.479-1.119l5.575 3.222c.45.323.818.747 1.074 1.238.257.491.396 1.036.405 1.59v49.573c0 1.088-.662 1.585-1.479 1.108z"/>
    <path fill="#234A6B" d="M395.303 214.348l-5.574-3.222c-.45-.323-.818-.747-1.075-1.238s-.395-1.036-.404-1.59v-41.067c0-1.036.662-1.585 1.479-1.119l5.574 3.233c.45.32.819.742 1.076 1.232.257.489.395 1.032.403 1.585v41.068c0 1.098-.662 1.595-1.479 1.118z"/>
    <path fill="#F2F2F2" d="M420.881 229.142l-5.585-3.221c-.449-.324-.815-.749-1.07-1.24-.255-.491-.392-1.035-.399-1.589v-20.295c0-1.098.652-1.595 1.469-1.119l5.585 3.222c.446.325.811.75 1.066 1.241.255.491.393 1.034.402 1.587v20.296c0 1.087-.662 1.585-1.468 1.118z"/>
    <path fill="#234A6B" d="M433.716 236.571l-5.534-3.233c-.45-.32-.818-.742-1.075-1.232-.257-.489-.395-1.033-.404-1.586v-69.028c0-1.098.662-1.596 1.479-1.119l5.575 3.222c.45.322.819.746 1.076 1.238.257.491.395 1.036.403 1.59v69.029c-.041 1.088-.703 1.585-1.52 1.119z"/>
    <path fill="#F2F2F2" d="M465.043 254.69l-5.574-3.232c-.45-.321-.819-.743-1.076-1.232-.257-.49-.395-1.033-.403-1.586v-20.306c0-1.087.662-1.585 1.479-1.118l5.574 3.232c.452.321.821.745 1.078 1.236.257.492.395 1.037.401 1.592v20.295c0 1.088-.661 1.585-1.479 1.119z"/>
    <path fill="#234A6B" d="M477.889 262.108l-5.575-3.232c-.451-.322-.821-.745-1.078-1.237-.257-.491-.394-1.037-.401-1.592v-26.936c0-1.087.662-1.585 1.479-1.118l5.575 3.222c.45.323.818.747 1.074 1.238.257.491.396 1.035.405 1.59v26.988c0 1.077-.662 1.554-1.479 1.077z"/>
    <path fill="#D6D8E5" d="M108.504 515.928l-46.1693-26.667c-5.2334-3.035-4.5818-8.288 1.4686-11.81l23.4363-13.561c6.0401-3.492 15.1514-3.906 20.4164-.798l46.169 26.708c5.233 3.025 4.582 8.288-1.469 11.8l-23.436 13.562c-6.04 3.439-15.152 3.874-20.416.766z" opacity=".4"/>
    <path fill="#D6D8E5" d="M177.892 482.641v-64.553l-98.5851-11.116v64.957c-.0621 1.989 1.0342 3.885 3.5164 5.294l46.1697 26.708c5.233 3.025 14.376 2.642 20.416-.849l23.436-13.562c3.403-1.968 5.099-4.506 4.996-6.879h.051z"/>
    <path fill="#EDF0F9" d="M177.83 425.133v-7.045h-7.581l-42.104-24.356c-5.234-3.036-14.377-2.652-20.417.839l-23.436 13.613c-.4168.237-.8208.497-1.2101.777l-3.775-1.937v7.697c-.0621 1.969 1.0342 3.864 3.5164 5.273l46.1697 26.698c5.233 3.025 14.376 2.642 20.416-.849l23.436-13.551c3.506-2.072 5.171-4.662 4.975-7.107l.01-.052z"/>
    <path fill="#E2E5F2" d="M128.993 438.964l-46.1697-26.698c-5.2333-3.025-4.5817-8.288 1.4687-11.811l23.436-13.55c6.04-3.502 15.183-3.875 20.416-.85l46.17 26.698c5.233 3.025 4.581 8.288-1.469 11.81l-23.436 13.551c-6.04 3.502-15.183 3.875-20.416.85z"/>
    <path fill="#2E5A80" d="M118.588 402.517v-2.569h-1.572l-.486-.311c-1.547-.786-3.256-1.196-4.991-1.196-1.734 0-3.443.41-4.99 1.196-.295.172-.576.37-.838.59l-1.23-.279v2.569c.057.622.279 1.218.643 1.726s.855.91 1.425 1.164c1.547.787 3.256 1.197 4.99 1.197 1.735 0 3.444-.41 4.991-1.197.569-.253 1.061-.655 1.423-1.163.362-.509.581-1.105.635-1.727z"/>
    <path fill="#234A6B" d="M111.534 404.03c3.896 0 7.054-1.828 7.054-4.082 0-2.255-3.158-4.082-7.054-4.082-3.895 0-7.053 1.827-7.053 4.082 0 2.254 3.158 4.082 7.053 4.082z"/>
    <path fill="#163D5F" d="M136.088 413.364c-.385.863-1.053 1.569-1.893 1.999-1.546.782-3.254 1.189-4.985 1.189-1.732 0-3.439-.407-4.985-1.189-.84-.43-1.508-1.136-1.893-1.999-.517-1.326.124-2.745 1.893-3.781 1.546-.782 3.253-1.189 4.985-1.189 1.731 0 3.439.407 4.985 1.189 1.779.984 2.41 2.403 1.893 3.781z"/>
    <path fill="#234A6B" d="M136.088 413.364c-.385.863-1.053 1.569-1.893 1.999-1.546.782-3.254 1.189-4.985 1.189-1.732 0-3.439-.407-4.985-1.189-.506-.036-.98-.263-1.325-.635-.346-.372-.538-.861-.538-1.369s.192-.998.538-1.369c.345-.372.819-.599 1.325-.636 1.546-.781 3.253-1.188 4.985-1.188 1.731 0 3.439.407 4.985 1.188.842.433 1.51 1.143 1.893 2.01z"/>
    <path fill="#2E5A80" d="M152.667 422.553v-2.569h-1.572l-.486-.311c-1.547-.786-3.257-1.196-4.991-1.196-1.734 0-3.444.41-4.99 1.196-.293.173-.573.367-.838.58l-1.231-.269v2.569c.058.623.28 1.218.644 1.726.363.508.855.91 1.425 1.165 1.546.786 3.256 1.196 4.99 1.196 1.734 0 3.444-.41 4.991-1.196.569-.254 1.061-.655 1.423-1.164.362-.508.581-1.105.635-1.727z"/>
    <path fill="#234A6B" d="M145.613 424.066c3.896 0 7.054-1.828 7.054-4.082 0-2.254-3.158-4.082-7.054-4.082-3.896 0-7.054 1.828-7.054 4.082 0 2.254 3.158 4.082 7.054 4.082z"/>
    <path fill="#FFCEA9" d="M67.537 392.136c-.2792 2.414-3.1028 12.836-2.5443 16.411.5585 3.574 10.446 9.541 10.446 9.541l1.3652-6.112-5.4401-5.346 1.4686-10.122-5.2954-4.372z"/>
    <path fill="#EDEDED" d="M75.1388 381.87c-.9548-.446-2.04-.525-3.0489-.221-1.0089.304-1.8711.969-2.4223 1.868-1.448 2.403-2.9476 10.629-3.1028 12.038 0 0 2.0685 2.808 5.0782 2.342l3.4958-16.027z"/>
    <path fill="#133858" d="M86.3605 498.067c2.1396.59 4.4252.311 6.3606-.777 1.5307.052 9.8569-3.522 10.9839-.528 1.034 2.631-2.617 5.056-4.5404 5.522-4.1991 1.036-7.3019 3.108-8.9981 3.481-1.2514.259-2.8856.435-3.8784-.56-1.2101-1.181-1.1067-5.573.0724-7.138z"/>
    <path fill="#385A76" d="M90.1666 505.029c1.6962-.352 4.7989-2.455 8.998-3.47 1.6134-.394 4.3954-2.155 4.6744-4.269.373 2.414-2.875 4.559-4.6744 4.994-4.1991 1.036-7.3018 3.108-8.998 3.481-1.2515.259-2.8856.435-3.8785-.56-.272-.291-.4643-.648-.5585-1.036.6205.482 1.3454.811 2.1161.96.7708.15 1.5658.116 2.3209-.1z"/>
    <path fill="#133858" d="M72.8737 491.996c2.1384.593 4.4239.318 6.3607-.766 1.5307 0 9.8462-3.523 10.9839-.529 1.0342 2.621-2.6167 5.046-4.5404 5.522-4.1991 1.036-7.3122 3.108-8.9981 3.471-1.2618.259-2.8856.435-3.8888-.549-1.1997-1.192-1.0963-5.584.0827-7.149z"/>
    <path fill="#385A76" d="M76.6798 498.969c1.6859-.363 4.799-2.456 8.9981-3.481 1.6134-.384 4.3955-2.155 4.6748-4.258.3723 2.414-2.8752 4.548-4.6748 4.993-4.1991 1.036-7.3122 3.108-8.9981 3.471-1.2618.259-2.8856.435-3.8888-.549-.2622-.297-.4501-.652-.5481-1.036.6223.478 1.3472.805 2.1172.954.7701.149 1.5642.117 2.3197-.094z"/>
    <path fill="#234A6B" d="M72.7083 469.36c.3584-3.095.9988-6.15 1.9134-9.127 0 0-.5689-7.874-.8585-15.344-.3206-8.474-3.2579-15.933-.9411-22.688l26.0943 5.812s-1.5721 33.784-1.9237 37.866c-.1894 3.185-.5797 6.354-1.1687 9.49-1.1894 6.557-3.1028 22.16-3.1028 22.16-2.7511 1.605-6.3814.714-6.3814.714s.2069-19.684.3827-24.449c.2172-5.771.393-5.336.393-5.336l-.8688-14.369-.5585-7.148s-.7239 5.242-1.1997 9.935c-.4034 4.082-1.3859 7.78-2.4926 15.385-.9515 6.599-2.5029 19.86-2.5029 19.86-2.7614 1.606-6.5055.269-6.5055.269s-1.0239-17.311-.2792-23.03z"/>
    <path fill="#FFCEA9" d="M76.535 382.004c1.9962.104 3.4751.612 3.7234 0 .2071-1.026.3556-2.064.4447-3.108-.2275-.58-.424-1.201-.424-1.201-2.4926-1.534-3.2786-4.238-3.6096-7.387-.5585-5.377 2.3374-10.08 7.7052-10.64 5.0472-.528 8.7705 3.025 9.7531 7.905.5378 2.403 1.603 6.962.1654 10.919-.8067 2.217-1.8409 3.978-2.8752 4.32-1.0007-.032-1.9986-.122-2.989-.269 0 0-.2689 1.492-.4551 2.445-.1861.953-.1137 1.471 1.7893 2.642 1.903 1.17-2.8856 3.626-5.9884 3.387-3.1027-.238-6.6399-2.123-7.6121-4.144-1.1066-2.268-1.0136-4.931.3723-4.869z"/>
    <path fill="#F4F4F4" d="M79.3896 382.284c-.5481 1.378.8481 3.108 4.5818 4.227 3.7337 1.119 4.075-.332 4.075-.332 2.4801 1.113 4.8971 2.361 7.2398 3.74 2.2443 1.575 3.2372 6.113 3.5371 13.779.3517 8.868.3827 22.025.0828 24.294 0 0-4.1371 4.144-9.5462 3.74-5.4092-.404-14.3659-5.18-16.5482-8.858.0621-7.78.9722-9.044-.2895-13.519-2.8753-10.257-4.3853-14.504-2.989-21.269 1.148-5.626 2.7614-6.32 4.9851-6.268 1.6311.066 3.2573.221 4.8713.466z"/>
    <path fill="#FFCEA9" d="M107.263 411.054c-4.406 1.108-5.43-1.668-6.009-3.968-1.4068-5.574-2.1514-10.598-3.196-13.758-1.2308-3.73-2.5236-4.32-4.3232-5.046-2.0685-.859-3.9509.943-3.2476 5.688.8679 5.506 2.2176 10.924 4.0336 16.193.5482 1.73 1.7686 4.807 3.6096 6.299 2.2646 1.833 5.6886 1.761 10.8596.476 2.203-.559 4.623-1.875 8.791-3.823 1.117-.518 1.986-.87 4.137-1.875 2.16-.966 4.053-2.445 5.513-4.31 1.127-1.636 1.272-2.403 1.034-2.776-.238-.373-.796-.363-1.396.331-.871 1.16-1.943 2.153-3.165 2.932 0 0 1.386-1.44 2.141-2.372.675-.829 1.235-1.746 1.665-2.725.393-.953-.424-2.248-1.034-1.564-.61.684-.921 1.367-2.069 2.735-.608.73-1.303 1.384-2.068 1.948.706-.955 1.332-1.967 1.872-3.026.487-.826.727-1.775.693-2.735 0-.497-.735-1.087-1.396-.145-.639 1.296-1.431 2.51-2.359 3.616-1.034 1.036-1.861 1.637-1.882 1.347-.021-.29.6-.86.962-2.072.362-1.212 0-2.507-.672-2.642-.673-.135-.538-.104-1.035 1.036-.741 1.169-1.407 2.383-1.996 3.636-.346 1.167-.966 2.233-1.81 3.108-1.086 1.161-3.475 2.435-7.653 3.492z"/>
    <path fill="#EDEDED" d="M92.1006 387.516c2.9373-.435 5.0161.891 6.309 5.346 1.2928 4.454 2.2034 8.07 2.2034 8.07-1.1607 1.68-2.9184 2.851-4.9132 3.274-3.5165.86-4.7783-.829-4.7783-.829s-.9722-4.662-1.5824-7.843c-.6102-3.18-.8687-7.48 2.7615-8.018z"/>
    <path fill="#224A6B" d="M93.9416 366.879s4.6335-7.066-5.4195-8.506c-7.2398-1.036-11.9043 3.626-12.4111 8.692-.5171 4.838 2.4616 9.863 4.6025 11.852 2.1103.538 4.3451.268 6.2676-.756.1231-1.316.1715-2.637.1447-3.958 0 0-3.5681-7.459 6.8158-7.324z"/>
    <path fill="#D6D8E5" d="M395.686 502.253c14.069 0 25.474-6.596 25.474-14.732s-11.405-14.732-25.474-14.732-25.474 6.596-25.474 14.732 11.405 14.732 25.474 14.732z" opacity=".4"/>
    <path fill="#224A6B" d="M395.469 345.371c1.034-1.688 9.101-2.807 11.749 4.02 1.034 2.59.848 9.21 1.686 13.364.838 4.155 2.813 6.517 3.527 9.884.713 3.367-.445 9.023-8.564 10.028-8.119 1.005-14.355-1.854-16.269-4.444-1.913-2.59-1.954-8.102 0-11.065 1.955-2.963 3.506-5.356 3.455-9.21l4.416-12.577z"/>
    <path fill="#224A6B" d="M400.785 344.201s-6.061-1.751-9.732 1.523c-1.21 1.119-2.09 2.549-2.546 4.134-.456 1.586-.47 3.266-.04 4.858.486 1.917 1.469 4.527 2.989 4.672 1.52.145 9.329-15.187 9.329-15.187z"/>
    <path fill="#FFCEA9" d="M403.102 360.746s-.404 6.754-.279 7.252c.124.497 2.647 1.036 3.361 1.574.713.539-3.672 7.449-5.895 8.464-2.224 1.016-9.123-1.585-9.609-5.014-.434-3.17 1.976-5.625 2.907-6.485.632-.06 1.268-.077 1.903-.052l.206-3.274c3.02-.963 7.406-2.465 7.406-2.465zM386.812 373.519c0-.196-1.034.353-1.034.363 0 .01-.486 17.353-1.334 18.928-2.162 3.678-7.881 9.914-8.026 10.608-.424 2.072.796.218 2.761 0 1.107-.134 7.613-6.723 9.071-8.225l.093.051v-.165l.186-.197c.037-.469.037-.94 0-1.409 2.741-18.845-.589-20.099-1.717-19.954z"/>
    <path fill="#F4F4F4" d="M404.022 368.661c1.903.29 4.065 1.305 4.365 2.341.783 3.749.598 7.635-.538 11.292-1.644 4.352-2.751 7.118-3.703 8.993 0 0-8.201 3.522-14.821-.591 0 0-.455-4.662-.486-7.158-6.102-5.336-.879-11.914 4.292-17.022.62-.057 1.243-.057 1.862 0 0 0-4.613 5.47-1.406 8.578 6.877-2.134 8.243-5.242 10.435-6.433z"/>
    <path fill="#FFCEA9" d="M390.494 352.364c.673-4.341 3.806-7.625 8.274-7.366 1.801.098 3.525.76 4.929 1.893 1.404 1.133 2.417 2.68 2.895 4.421.478 1.742.397 3.59-.231 5.283-.628 1.693-1.772 3.145-3.27 4.151-.154.657-.386 1.294-.692 1.895-1.583 1.844-5.792 3.015-7.178 3.036-1.2 0-2.234-1.109-3.362-2.973-2.337-3.885-1.737-8.195-1.365-10.34z"/>
    <path fill="#224A6B" d="M400.165 345.081c3.102.611 5.709 1.502 6.567 4.579.579 2.134 1.345 6.216.621 7.884l-.455 1.233-3.796 1.969s-1.779-1.482-1.221-5.823c-.021-.585-.208-1.153-.537-1.637-.238-.411-.415-.854-.528-1.315-.451-1.173-1.331-2.129-2.461-2.673-2.824-1.585-6.961-.218-7.54.362.8-1.72 2.164-3.113 3.866-3.946 1.702-.834 3.637-1.057 5.484-.633z"/>
    <path fill="#133858" d="M405.873 482.455c-1.592 1.295-4.064.404-4.137.518-1.853 1.591-3.794 3.079-5.812 4.455-1.034.777-2.534 1.823-2.255 3.315.497 2.683 4.779 1.865 6.392 1.036 1.613-.829 2.937-2.176 4.468-3.108 1.086-.674 2.162-1.036 2.337-2.404.052-.86-.713-3.843-.993-3.812z"/>
    <path fill="#385A76" d="M406.804 485.687c-.217 1.326-1.272 1.689-2.358 2.362-1.551.964-2.916 2.362-4.53 3.181-1.613.818-5.223 1.502-6.267-.404.569 2.579 4.778 1.771 6.371.953 1.592-.819 2.937-2.176 4.468-3.108 1.086-.674 2.161-1.036 2.337-2.404.008-.193.001-.387-.021-.58z"/>
    <path fill="#133858" d="M394.735 480.227c-1.459 1.192-3.651.518-3.755.632-1.699 1.447-3.474 2.803-5.316 4.062-.91.714-2.327 1.667-2.068 3.035.455 2.455 4.375 1.699 5.864.953 1.489-.746 2.679-1.999 4.085-2.87 1.034-.621 1.976-.942 2.131-2.206.103-.767-.683-3.637-.941-3.606z"/>
    <path fill="#385A76" d="M395.665 483.325c-.196 1.212-1.168 1.544-2.161 2.155-1.417.891-2.669 2.165-4.137 2.921-1.469.757-4.778 1.378-5.74-.372.517 2.362 4.375 1.626 5.843.88 1.469-.746 2.679-1.999 4.086-2.87 1.034-.621 1.975-.942 2.13-2.206.013-.17.006-.34-.021-.508z"/>
    <path fill="#FFCEA9" d="M386.171 406.257c.703-5.491 2.72-13.468 2.72-13.468 1.907.892 3.969 1.402 6.071 1.502 3.083-.01 6.157-.309 9.184-.891.987 1.73 2.068 3.404 3.238 5.015 1.582 2.196 4.654 7.003 3.909 15.405-.486 5.491-3.558 28.811-3.558 28.811 1.197 3.921 1.834 7.991 1.893 12.09-.29 4.875-.933 9.722-1.924 14.504l-1.83 13.23s-2.441 1.771-4.137.518l.217-12.95c-.207-3.17-.528-7.843-.724-10.826-.331-4.87-1.2-12.588-1.448-14.504-.248-1.917-.869-5.305-1.169-9.076-.3-3.771-1.706-22.968-1.706-22.968l-.197 3.595s-.196 5.833-1.034 13.033c-.838 7.2-1.128 10.36-1.128 10.36.794 1.452 1.35 3.023 1.645 4.652.145 1.554 1.913 13.861.858 20.119l-2.182 15.923c-.541.376-1.164.618-1.817.704-.653.087-1.317.016-1.937-.207l-1.283-16.047c-.858-6.102-2.678-19.042-2.958-20.72-.62-3.39-.987-6.822-1.096-10.267-.455-6.962-.31-22.057.393-27.537z"/>
    <path fill="#234A6B" d="M404.146 391.287l4.717 9.479s7.239 10.547-.259 37.659l1.396 8.371s-14.107 9.065-23.55 0c0 0-3.268-25.061-1.53-36.613.972-6.638 2.441-13.194 4.395-19.611 0 0 2.317 2.559 14.211.87"/>
    <path fill="#EDEDED" d="M393.132 366.516s-3.744-1.15-7.726 7.169l1.489.891s3.92-5.926 6.237-8.06z"/>
    <path fill="#F4F4F4" d="M363.893 411.592l16.114-9.375 11.563 6.682-16.114 9.386-11.563-6.693z"/>
    <path fill="#FFCEA9" d="M377.928 402.9c-1.011.102-1.988.42-2.865.933-.322.281-.668.534-1.034.756-.155.073-.31.176-.476.249-.246.09-.469.235-.652.424-.179.267-.277.58-.279.902-.082.384-.103.779-.062 1.17.145.581.745.529 1.034.125.158-.202.248-.449.259-.705.009-.245.075-.484.194-.698.118-.214.286-.397.489-.535l3.847-2.393c-.045-.079-.112-.143-.193-.183-.081-.041-.172-.056-.262-.045zM408.583 373.996c-.527-2.196-2.244-1.492-3.723-2.777-3.423 4.859-1.148 17.996-.683 19.394l-13.155 8.402-.89.549c-1.497.986-3.152 1.708-4.892 2.135-1.313.155-1.996 2.009-3.403 2.175-.107.004-.211.039-.298.102-.088.063-.155.149-.194.25-.038.1-.046.21-.023.315.023.105.076.201.153.276.559.539 2.069.093 3.103-1.109-.005.028-.005.056 0 .083.009.193.066.379.168.543.101.163.243.297.411.39.076.046.161.074.249.083-.001.088.024.174.072.248.074.152.185.284.322.383.137.1.296.164.464.187.074.213.215.395.401.52.187.126.409.187.633.174.302-.015.587-.145.797-.362 1.121-.429 2.112-1.143 2.875-2.072.674-.702 1.385-1.366 2.13-1.99 3.569-1.543 14.273-6.122 14.749-6.775.745-.984 1.5-18.016.734-21.124z"/>
    <path fill="#EDEDED" d="M409.783 379.891s-4.209 1.885-7.705.124l.507-6.599s.051-3.543 3.206-3.896c3.154-.352 4.809 3.699 3.992 10.371z"/>
  </g>
  <defs>
    <clipPath id="clip0">
      <path fill="#fff" d="M0 0h506v518H0z"/>
    </clipPath>
  </defs>
</svg>
