<svg xmlns="http://www.w3.org/2000/svg" fill="none" viewBox="0 0 22 22">
  <defs/>
  <path stroke="#F2F2F2" stroke-linecap="round" stroke-linejoin="round" stroke-width="2" d="M16 1H6C3.23858 1 1 3.23858 1 6v10c0 2.7614 2.23858 5 5 5h10c2.7614 0 5-2.2386 5-5V6c0-2.76142-2.2386-5-5-5z"/>
  <path stroke="#F2F2F2" stroke-linecap="round" stroke-linejoin="round" stroke-width="2" d="M15 10.3698c.1234.8323-.0188 1.6822-.4063 2.429-.3875.7468-1.0006 1.3524-1.7521 1.7307-.7515.3782-1.6032.5099-2.4339.3762-.83062-.1336-1.59799-.5258-2.19291-1.1207-.59492-.5949-.98711-1.3623-1.12077-2.193-.13367-.8306-.002-1.68229.37626-2.43381.37826-.75152.98386-1.36464 1.73066-1.75214.74679-.38749 1.59676-.52965 2.42906-.40624.8489.12589 1.6348.52147 2.2416 1.12831.6069.60684 1.0025 1.39277 1.1284 2.24168zM16.5 5.5h.01"/>
</svg>
