<svg width="22" height="22" viewBox="0 0 22 22" fill="none" xmlns="http://www.w3.org/2000/svg">
<path d="M15 7.3335C16.5913 7.3335 18.1174 7.99574 19.2426 9.17454C20.3679 10.3533 21 11.9521 21 13.6192V20.9525H17V13.6192C17 13.0635 16.7893 12.5306 16.4142 12.1377C16.0391 11.7447 15.5304 11.524 15 11.524C14.4696 11.524 13.9609 11.7447 13.5858 12.1377C13.2107 12.5306 13 13.0635 13 13.6192V20.9525H9V13.6192C9 11.9521 9.63214 10.3533 10.7574 9.17454C11.8826 7.99574 13.4087 7.3335 15 7.3335V7.3335Z" stroke="#F2F2F2" stroke-width="2" stroke-linecap="round" stroke-linejoin="round"/>
<path d="M5 8.38086H1V20.9523H5V8.38086Z" stroke="#F2F2F2" stroke-width="2" stroke-linecap="round" stroke-linejoin="round"/>
<path d="M3 5.23833C4.10457 5.23833 5 4.30026 5 3.14309C5 1.98592 4.10457 1.04785 3 1.04785C1.89543 1.04785 1 1.98592 1 3.14309C1 4.30026 1.89543 5.23833 3 5.23833Z" stroke="#F2F2F2" stroke-width="2" stroke-linecap="round" stroke-linejoin="round"/>
</svg>
